<?xml version="1.0" encoding="iso-8859-1"?>
<!-- Generator: Adobe Illustrator 19.0.0, SVG Export Plug-In . SVG Version: 6.00 Build 0)  -->
<svg version="1.1" id="Capa_1" xmlns="http://www.w3.org/2000/svg" xmlns:xlink="http://www.w3.org/1999/xlink" x="0px" y="0px"
	 viewBox="0 0 383.989 383.989" style="enable-background:new 0 0 383.989 383.989;" xml:space="preserve">
<g>
	<g>
		<path d="M288.005,362.653H21.339V95.987c0-5.888-4.779-10.667-10.667-10.667S0.005,90.099,0.005,95.987V373.32
			c0,5.888,4.779,10.667,10.667,10.667h277.333c5.888,0,10.667-4.779,10.667-10.667
			C298.672,367.432,293.893,362.653,288.005,362.653z"/>
	</g>
</g>
<g>
	<g>
		<path d="M380.869,3.123c-4.16-4.16-10.923-4.16-15.083,0L3.12,365.789c-4.16,4.16-4.16,10.923,0,15.083
			c2.091,2.069,4.821,3.115,7.552,3.115c2.731,0,5.461-1.045,7.531-3.115L380.869,18.205
			C385.029,14.045,385.029,7.283,380.869,3.123z"/>
	</g>
</g>
<g>
</g>
<g>
</g>
<g>
</g>
<g>
</g>
<g>
</g>
<g>
</g>
<g>
</g>
<g>
</g>
<g>
</g>
<g>
</g>
<g>
</g>
<g>
</g>
<g>
</g>
<g>
</g>
<g>
</g>
</svg>
